<svg width="288" height="228" viewBox="0 0 288 228" fill="none" xmlns="http://www.w3.org/2000/svg">
<path fill-rule="evenodd" clip-rule="evenodd" d="M12.4218 197.279L87.9235 15.0017C91.4067 6.59255 99.6125 1.10962 108.715 1.10962C108.9 1.10962 109.084 1.11179 109.268 1.1161C109.451 1.11179 109.636 1.10962 109.821 1.10962C118.923 1.10962 127.079 8.43133 130.562 16.8405L206.114 197.279C212.101 211.734 201.477 227.634 185.831 227.634C177.003 227.634 169.034 222.347 165.603 214.213L125.035 118.039C119.151 104.09 99.3844 104.09 93.5005 118.039L52.932 214.213C49.5011 222.347 41.532 227.634 32.7043 227.634C17.0584 227.634 6.43436 211.734 12.4218 197.279Z" fill="url(#paint0_linear_4_2)"/>
<path d="M88.0771 15.0017L12.5753 197.28C6.58791 211.734 17.2119 227.634 32.8579 227.634C41.6856 227.634 49.6546 222.347 53.0856 214.213L118.63 58.8285L129.656 32.2319C135.8 17.4137 124.909 1.10962 108.868 1.10962C99.766 1.10962 91.5603 6.59256 88.0771 15.0017Z" fill="black" stroke="black" stroke-width="0.629236" stroke-linecap="round" stroke-linejoin="round"/>
<path d="M199.509 15.0017L275.011 197.28C280.998 211.734 270.374 227.634 254.728 227.634C245.9 227.634 237.931 222.347 234.5 214.213L168.956 58.8285L157.93 32.2319C151.786 17.4137 162.677 1.10962 178.718 1.10962C187.82 1.10962 196.026 6.59256 199.509 15.0017Z" fill="black"/>
<defs>
<linearGradient id="paint0_linear_4_2" x1="113.694" y1="67.6749" x2="255.381" y2="128.004" gradientUnits="userSpaceOnUse">
<stop stop-color="#3F2199"/>
<stop offset="0.162555" stop-color="#5C2EE8"/>
</linearGradient>
</defs>
</svg>
