<svg xmlns="http://www.w3.org/2000/svg" xmlns:xlink="http://www.w3.org/1999/xlink" version="1.1" width="256" height="256" viewBox="0 0 256 256" xml:space="preserve">
<g style="stroke: none; stroke-width: 0; stroke-dasharray: none; stroke-linecap: butt; stroke-linejoin: miter; stroke-miterlimit: 10; fill: none; fill-rule: nonzero; opacity: 1;" transform="translate(1.4065934065934016 1.4065934065934016) scale(2.81 2.81)">
	<rect x="24.14" y="43.29" rx="0" ry="0" width="41.73" height="13.36" style="stroke: none; stroke-width: 1; stroke-dasharray: none; stroke-linecap: butt; stroke-linejoin: miter; stroke-miterlimit: 10; fill: rgb(124,137,164); fill-rule: nonzero; opacity: 1;" transform=" matrix(1 0 0 1 0 0) "/>
	<rect x="12.95" y="56.65" rx="0" ry="0" width="64.1" height="13.36" style="stroke: none; stroke-width: 1; stroke-dasharray: none; stroke-linecap: butt; stroke-linejoin: miter; stroke-miterlimit: 10; fill: rgb(84,94,114); fill-rule: nonzero; opacity: 1;" transform=" matrix(1 0 0 1 0 0) "/>
	<path d="M 65.865 57.651 h -41.73 c -0.552 0 -1 -0.447 -1 -1 V 43.288 c 0 -0.552 0.448 -1 1 -1 h 41.73 c 0.553 0 1 0.448 1 1 v 13.364 C 66.865 57.204 66.418 57.651 65.865 57.651 z M 25.135 55.651 h 39.73 V 44.288 h -39.73 V 55.651 z" style="stroke: none; stroke-width: 1; stroke-dasharray: none; stroke-linecap: butt; stroke-linejoin: miter; stroke-miterlimit: 10; fill: rgb(0,0,0); fill-rule: nonzero; opacity: 1;" transform=" matrix(1 0 0 1 0 0) " stroke-linecap="round"/>
	<path d="M 77.05 71.015 H 12.951 c -0.552 0 -1 -0.447 -1 -1 V 56.651 c 0 -0.553 0.448 -1 1 -1 H 77.05 c 0.553 0 1 0.447 1 1 v 13.363 C 78.05 70.567 77.603 71.015 77.05 71.015 z M 13.951 69.015 H 76.05 V 57.651 H 13.951 V 69.015 z" style="stroke: none; stroke-width: 1; stroke-dasharray: none; stroke-linecap: butt; stroke-linejoin: miter; stroke-miterlimit: 10; fill: rgb(0,0,0); fill-rule: nonzero; opacity: 1;" transform=" matrix(1 0 0 1 0 0) " stroke-linecap="round"/>
	<rect x="1" y="70.02" rx="0" ry="0" width="88" height="13.36" style="stroke: none; stroke-width: 1; stroke-dasharray: none; stroke-linecap: butt; stroke-linejoin: miter; stroke-miterlimit: 10; fill: rgb(75,84,102); fill-rule: nonzero; opacity: 1;" transform=" matrix(1 0 0 1 0 0) "/>
	<path d="M 89 84.379 H 1 c -0.552 0 -1 -0.447 -1 -1 V 70.015 c 0 -0.553 0.448 -1 1 -1 h 88 c 0.553 0 1 0.447 1 1 v 13.364 C 90 83.932 89.553 84.379 89 84.379 z M 2 82.379 h 86 V 71.015 H 2 V 82.379 z" style="stroke: none; stroke-width: 1; stroke-dasharray: none; stroke-linecap: butt; stroke-linejoin: miter; stroke-miterlimit: 10; fill: rgb(0,0,0); fill-rule: nonzero; opacity: 1;" transform=" matrix(1 0 0 1 0 0) " stroke-linecap="round"/>
	<polygon points="45,6.62 49.84,16.43 60.66,18 52.83,25.64 54.68,36.41 45,31.32 35.32,36.41 37.17,25.64 29.34,18 40.16,16.43 " style="stroke: none; stroke-width: 1; stroke-dasharray: none; stroke-linecap: butt; stroke-linejoin: miter; stroke-miterlimit: 10; fill: rgb(249,219,93); fill-rule: nonzero; opacity: 1;" transform="  matrix(1 0 0 1 0 0) "/>
	<path d="M 35.32 37.414 c -0.207 0 -0.414 -0.064 -0.588 -0.191 C 34.424 37 34.27 36.62 34.334 36.245 l 1.76 -10.261 l -7.455 -7.267 c -0.272 -0.266 -0.371 -0.663 -0.253 -1.025 c 0.118 -0.362 0.431 -0.626 0.807 -0.681 l 10.303 -1.497 l 4.607 -9.335 c 0.338 -0.683 1.457 -0.683 1.794 0 l 4.607 9.335 l 10.303 1.497 c 0.377 0.055 0.689 0.319 0.808 0.681 c 0.117 0.362 0.02 0.759 -0.253 1.025 l -7.456 7.267 l 1.761 10.261 c 0.064 0.375 -0.09 0.754 -0.397 0.978 s -0.717 0.253 -1.053 0.076 L 45 32.455 l -9.215 4.844 C 35.639 37.376 35.479 37.414 35.32 37.414 z M 31.486 18.7 l 6.381 6.219 c 0.235 0.23 0.343 0.561 0.288 0.885 l -1.506 8.782 l 7.887 -4.146 c 0.291 -0.153 0.64 -0.153 0.931 0 l 7.887 4.146 l -1.507 -8.782 c -0.056 -0.324 0.052 -0.655 0.287 -0.885 l 6.381 -6.219 l -8.817 -1.281 c -0.326 -0.047 -0.607 -0.252 -0.753 -0.547 L 45 8.881 l -3.943 7.99 c -0.146 0.295 -0.427 0.5 -0.753 0.547 L 31.486 18.7 z" style="stroke: none; stroke-width: 1; stroke-dasharray: none; stroke-linecap: butt; stroke-linejoin: miter; stroke-miterlimit: 10; fill: rgb(0,0,0); fill-rule: nonzero; opacity: 1;" transform=" matrix(1 0 0 1 0 0) " stroke-linecap="round"/>
	<path d="M 53.604 12.402 c -0.256 0 -0.512 -0.098 -0.707 -0.293 c -0.391 -0.391 -0.391 -1.024 0 -1.414 l 3.793 -3.792 c 0.391 -0.391 1.023 -0.391 1.414 0 s 0.391 1.024 0 1.414 l -3.793 3.792 C 54.115 12.304 53.859 12.402 53.604 12.402 z" style="stroke: none; stroke-width: 1; stroke-dasharray: none; stroke-linecap: butt; stroke-linejoin: miter; stroke-miterlimit: 10; fill: rgb(0,0,0); fill-rule: nonzero; opacity: 1;" transform=" matrix(1 0 0 1 0 0) " stroke-linecap="round"/>
	<path d="M 36.396 12.402 c -0.256 0 -0.512 -0.098 -0.707 -0.293 l -3.792 -3.792 c -0.391 -0.391 -0.391 -1.023 0 -1.414 s 1.023 -0.391 1.414 0 l 3.792 3.792 c 0.391 0.391 0.391 1.023 0 1.414 C 36.908 12.304 36.652 12.402 36.396 12.402 z" style="stroke: none; stroke-width: 1; stroke-dasharray: none; stroke-linecap: butt; stroke-linejoin: miter; stroke-miterlimit: 10; fill: rgb(0,0,0); fill-rule: nonzero; opacity: 1;" transform=" matrix(1 0 0 1 0 0) " stroke-linecap="round"/>
	<path d="M 27.213 29.816 c -0.433 0 -0.832 -0.283 -0.959 -0.72 c -0.155 -0.53 0.149 -1.085 0.679 -1.241 l 4.573 -1.338 c 0.528 -0.155 1.085 0.148 1.241 0.679 c 0.155 0.53 -0.149 1.085 -0.679 1.241 l -4.573 1.338 C 27.4 29.803 27.306 29.816 27.213 29.816 z" style="stroke: none; stroke-width: 1; stroke-dasharray: none; stroke-linecap: butt; stroke-linejoin: miter; stroke-miterlimit: 10; fill: rgb(0,0,0); fill-rule: nonzero; opacity: 1;" transform=" matrix(1 0 0 1 0 0) " stroke-linecap="round"/>
	<path d="M 62.786 29.816 c -0.093 0 -0.188 -0.013 -0.281 -0.041 l -4.572 -1.338 c -0.529 -0.155 -0.834 -0.711 -0.679 -1.241 c 0.155 -0.53 0.708 -0.833 1.241 -0.679 l 4.572 1.338 c 0.529 0.155 0.834 0.711 0.679 1.241 C 63.618 29.533 63.22 29.816 62.786 29.816 z" style="stroke: none; stroke-width: 1; stroke-dasharray: none; stroke-linecap: butt; stroke-linejoin: miter; stroke-miterlimit: 10; fill: rgb(0,0,0); fill-rule: nonzero; opacity: 1;" transform=" matrix(1 0 0 1 0 0) " stroke-linecap="round"/>
</g>
</svg>